<svg xmlns="http://www.w3.org/2000/svg" width="32" height="32"  stroke="none" stroke-linecap="round" stroke-linejoin="round" fill="#fff" fill-rule="evenodd"><path d="M2.4785.9036Q.9036.9036.9036 2.4785v15.7481q0 1.5746 1.5749 1.5746h15.7481q1.5746 0 1.5746-1.5748V2.4785q0-1.5749-1.5748-1.5749z" fill="#1ab7ea"/><path d="M3.57 7.5329l.5185-.552c.5859-.6076 1.2008-1.184 1.9097-1.6536.3425-.2275.7015-.4188 1.0993-.5327.5353-.1526 1.0127.0338 1.3021.5134s.4148 1.0096.5232 1.5472l.4389 2.3145c.1616.6319.3085 1.2685.5617 1.8713.0362.0851.0844.1647.1323.2445.1446.2372.3232.2615.5377.0822.2362-.196.4195-.4334.5905-.6803.3543-.5083.6751-1.0387.9402-1.6004.1663-.3534.2532-.7287.1639-1.1282-.1252-.5568-.5835-.7795-1.114-.6416a1.786 1.786 0 0 0-.5641.2469c.0531-.3728.1663-.7044.3378-1.0167.4653-.8546 1.1645-1.4284 2.0882-1.7334.5159-.172 1.037-.2107 1.5647-.0751.6487.167 1.1261.7287 1.2248 1.3944s-.0361 1.2928-.215 1.9174c-.3158 1.1015-.8414 2.1014-1.4877 3.0432-.9812 1.4308-2.1652 2.6703-3.5201 3.743-.2556.2007-.5089.4067-.8197.5229-.5329.2032-1.0103.0678-1.4492-.2565-.4918-.3657-.7985-.8594-.9959-1.4331l-.8292-2.6221-.9042-2.8035c-.0435-.1162-.0964-.23-.1519-.3413-.0723-.1403-.2025-.172-.3473-.167-.2893.0142-.5255.1623-.7644.3024-.0796.046-.1566.0992-.2291.1549-.0555.0435-.0893.0435-.1351-.0193l-.4075-.5207v-.1209z"/></svg>