<?xml version="1.0" encoding="iso-8859-1"?>
<!-- Generator: Adobe Illustrator 18.0.0, SVG Export Plug-In . SVG Version: 6.00 Build 0)  -->
<!DOCTYPE svg PUBLIC "-//W3C//DTD SVG 1.1//EN" "http://www.w3.org/Graphics/SVG/1.1/DTD/svg11.dtd">
<svg version="1.1" id="Capa_1" xmlns="http://www.w3.org/2000/svg" xmlns:xlink="http://www.w3.org/1999/xlink" x="0px" y="0px"
	 viewBox="0 0 476.685 476.685" style="enable-background:new 0 0 476.685 476.685;" xml:space="preserve">
<g id="vimeo_2_">
	<path d="M474.018,70.542c-8.389-35.016-47.869-44.913-87.74-38.788c-20.449,3.188-89.483,34.034-113.004,107.946
		c41.616-3.258,63.454,3.024,59.447,49.403c-1.698,19.435-11.346,40.696-22.194,61.092c-12.47,23.544-35.929,69.688-66.633,36.449
		c-27.653-29.988-25.532-87.239-31.829-125.411c-3.569-21.464-7.295-48.093-14.23-70.108c-5.923-18.971-19.624-41.773-36.38-46.769
		c-17.973-5.291-40.185,3.048-53.213,10.85C67.668,79.293,37.274,112.478,2.438,141.088c-4.396,4.473-1.793,8.23-0.313,11.558
		c5.003,7.832,6.936,12.585,16.476,13.981c24.767,3.678,48.319-23.373,64.731,4.824c10.039,17.16,13.171,35.981,19.578,54.467
		c8.526,24.768,15.149,51.641,22.163,80.063c11.894,48.031,26.404,119.832,67.477,137.499c20.917,8.946,52.37-3.047,68.285-12.61
		c43.177-25.889,78.293-62.245,105.616-101.594c71.107-102.328,105.197-205.146,108.904-224.73
		C477.991,90.352,476.262,78.638,474.018,70.542z"/>
</g>
<g>
</g>
<g>
</g>
<g>
</g>
<g>
</g>
<g>
</g>
<g>
</g>
<g>
</g>
<g>
</g>
<g>
</g>
<g>
</g>
<g>
</g>
<g>
</g>
<g>
</g>
<g>
</g>
<g>
</g>
</svg>
