<svg xmlns="http://www.w3.org/2000/svg" width="31" height="31"  stroke="none" stroke-linecap="round" stroke-linejoin="round" fill="#fff" fill-rule="evenodd"><path d="M3.2659.9036Q.9036.9036.9036 3.2659v23.6222q0 2.362 2.3623 2.362h23.6222q2.362 0 2.362-2.3624V3.2659q0-2.3623-2.3624-2.3623z" fill="#1ab7ea"/><path d="M4.9033 10.8476l.7778-.8281c.8787-.9113 1.801-1.7759 2.8644-2.4803.5138-.3412 1.0523-.6282 1.649-.799.803-.2289 1.5191.0506 1.9531.7699s.6222 1.5144.7849 2.3209l.6583 3.4717c.2424.9479.4628 1.9028.8426 2.807.0542.1276.1265.247.1984.3668.2169.3557.4847.3922.8065.1233.3543-.2941.6293-.6502.8858-1.0205.5315-.7625 1.0127-1.558 1.4102-2.4006.2495-.5301.3799-1.0931.2459-1.6923-.1877-.8351-.8752-1.1693-1.671-.9623-.293.0726-.5715.1888-.8461.3702.0797-.5591.2494-1.0566.5067-1.525.698-1.282 1.7468-2.1426 3.1323-2.6001.7738-.2579 1.5555-.316 2.347-.1127.973.2506 1.6891 1.0932 1.8372 2.0917.1482.9914-.0542 1.9392-.3224 2.8761-.4737 1.6522-1.2621 3.1521-2.2316 4.5648-1.4719 2.1462-3.2478 4.0054-5.2802 5.6144-.3834.3011-.7632.6101-1.2295.7845-.7994.3047-1.5155.1017-2.1739-.3848-.7377-.5485-1.1976-1.2891-1.4938-2.1498l-1.2437-3.933-1.3564-4.2052c-.0652-.1744-.1446-.3451-.2278-.512-.1084-.2105-.3037-.258-.5209-.2506-.434.0213-.7884.2435-1.1466.4536-.1194.0691-.2349.1488-.3437.2324-.0833.0652-.1339.0652-.2027-.029l-.6112-.781v-.1814z"/></svg>